<svg xmlns="http://www.w3.org/2000/svg" version="1.1" xmlns:xlink="http://www.w3.org/1999/xlink" xmlns:svgjs="http://svgjs.dev/svgjs" width="2000" height="1500" viewBox="0 0 2000 1500"><rect width="2000" height="1500" fill="#001f3f"></rect><g transform="matrix(0.75,0,0,0.75,249.090909090909,639.7840569114938)"><svg viewBox="0 0 396 58" data-background-color="#001f3f" preserveAspectRatio="xMidYMid meet" height="292" width="2000" xmlns="http://www.w3.org/2000/svg" xmlns:xlink="http://www.w3.org/1999/xlink"><g id="tight-bounds" transform="matrix(1,0,0,1,0.2400000000000091,0.189610498325834)"><svg viewBox="0 0 395.52 57.62077900334833" height="57.62077900334833" width="395.52"><g><svg viewBox="0 0 395.52 57.62077900334833" height="57.62077900334833" width="395.52"><g><svg viewBox="0 0 485.26871303213926 70.69569496072046" height="57.62077900334833" width="395.52"><g><rect width="4.613177083585362" height="61.385552787890404" x="407.59637979996165" y="4.6550710864150275" fill="#ffdc00" opacity="1" stroke-width="0" stroke="transparent" fill-opacity="1" class="rect-qz-0" data-fill-palette-color="primary" rx="1%" id="qz-0" data-palette-color="#ffdc00"></rect></g><g transform="matrix(1,0,0,1,0,9.770533818739228)"><svg viewBox="0 0 395.52 51.154627323242" height="51.154627323242" width="395.52"><g id="textblocktransform"><svg viewBox="0 0 395.52 51.154627323242" height="51.154627323242" width="395.52" id="textblock"><g><svg viewBox="0 0 395.52 51.154627323242" height="51.154627323242" width="395.52"><g transform="matrix(1,0,0,1,0,0)"><svg width="395.52" viewBox="2.33 -33.13 260.92 33.760000000000005" height="51.154627323242" data-palette-color="#ffdc00"><path d="M13.55 0.55L13.55 0.55Q7.98 0.55 5.15-2.18 2.33-4.9 2.33-9.98L2.33-9.98 2.33-14.33Q2.33-19.48 4.95-22.26 7.58-25.05 12.63-25.05L12.63-25.05Q16.03-25.05 18.3-23.79 20.58-22.53 21.73-20.2 22.88-17.88 22.88-14.65L22.88-14.65 22.88-13.75Q22.88-12.95 22.81-12.15 22.75-11.35 22.65-10.58L22.65-10.58 18.93-10.58Q18.98-11.78 18.99-12.85 19-13.93 19-14.83L19-14.83Q19-17.05 18.29-18.59 17.57-20.13 16.16-20.94 14.75-21.75 12.63-21.75L12.63-21.75Q9.47-21.75 7.9-19.93 6.33-18.1 6.33-14.7L6.33-14.7 6.33-12.38 6.35-11.88 6.35-9.55Q6.35-8.03 6.8-6.8 7.25-5.58 8.21-4.69 9.18-3.8 10.66-3.34 12.15-2.88 14.2-2.88L14.2-2.88Q16.57-2.88 18.63-3.5 20.68-4.13 22.48-5.2L22.48-5.2 22.1-1.7Q20.48-0.68 18.32-0.06 16.18 0.55 13.55 0.55ZM21.8-10.58L4.45-10.58 4.45-13.63 21.8-13.63 21.8-10.58ZM32.42 0L28.4 0 28.4-33.13 32.42-33.13 32.42 0ZM49.39 0.55L49.39 0.55Q43.82 0.55 40.99-2.18 38.17-4.9 38.17-9.98L38.17-9.98 38.17-14.33Q38.17-19.48 40.8-22.26 43.42-25.05 48.47-25.05L48.47-25.05Q51.87-25.05 54.14-23.79 56.42-22.53 57.57-20.2 58.72-17.88 58.72-14.65L58.72-14.65 58.72-13.75Q58.72-12.95 58.66-12.15 58.59-11.35 58.5-10.58L58.5-10.58 54.77-10.58Q54.82-11.78 54.83-12.85 54.84-13.93 54.84-14.83L54.84-14.83Q54.84-17.05 54.13-18.59 53.42-20.13 52.01-20.94 50.59-21.75 48.47-21.75L48.47-21.75Q45.32-21.75 43.74-19.93 42.17-18.1 42.17-14.7L42.17-14.7 42.17-12.38 42.2-11.88 42.2-9.55Q42.2-8.03 42.64-6.8 43.09-5.58 44.06-4.69 45.02-3.8 46.51-3.34 47.99-2.88 50.05-2.88L50.05-2.88Q52.42-2.88 54.47-3.5 56.52-4.13 58.32-5.2L58.32-5.2 57.95-1.7Q56.32-0.68 54.17-0.06 52.02 0.55 49.39 0.55ZM57.64-10.58L40.3-10.58 40.3-13.63 57.64-13.63 57.64-10.58ZM73.47 0.55L73.47 0.55Q68.22 0.55 65.66-2.29 63.09-5.13 63.09-10.33L63.09-10.33 63.09-14.13Q63.09-19.35 65.67-22.16 68.24-24.98 73.47-24.98L73.47-24.98Q75.02-24.98 76.29-24.69 77.57-24.4 78.58-23.94 79.59-23.48 80.29-22.98L80.29-22.98 80.64-19.45Q79.47-20.35 77.86-20.98 76.24-21.6 74.07-21.6L74.07-21.6Q70.57-21.6 68.86-19.66 67.14-17.73 67.14-14.03L67.14-14.03 67.14-10.43Q67.14-6.8 68.86-4.85 70.57-2.9 74.07-2.9L74.07-2.9Q76.32-2.9 77.96-3.53 79.59-4.15 80.87-5.05L80.87-5.05 80.49-1.48Q79.39-0.73 77.62-0.09 75.84 0.55 73.47 0.55ZM94.81 0.5L94.81 0.5Q91.99 0.5 90.27-0.35 88.54-1.2 87.77-2.93 86.99-4.65 86.99-7.23L86.99-7.23 86.99-22.63 90.99-22.63 90.99-7.7Q90.99-5.3 92.09-4.16 93.19-3.03 95.79-3.03L95.79-3.03Q97.27-3.03 98.63-3.35 99.99-3.68 101.19-4.28L101.19-4.28 100.81-0.8Q99.64-0.2 98.06 0.15 96.49 0.5 94.81 0.5ZM100.56-20.8L82.99-20.8 82.99-24.05 100.94-24.05 100.56-20.8ZM90.89-23.65L87.02-23.65 86.99-30.5 91.06-31.03 90.89-23.65ZM109.56-14.93L109.56-14.93 108.64-18.05 109.64-18.1Q110.44-21.2 112.39-22.99 114.34-24.78 117.56-24.78L117.56-24.78Q118.36-24.78 119-24.65 119.64-24.53 120.14-24.35L120.14-24.35 120.39-20.43Q119.76-20.63 119-20.75 118.24-20.88 117.31-20.88L117.31-20.88Q114.56-20.88 112.53-19.35 110.49-17.82 109.56-14.93ZM109.76 0L105.71 0 105.71-24.4 109.66-24.4 109.46-17.2 109.76-16.9 109.76 0ZM133.41 0.63L133.41 0.63Q128.16 0.63 125.45-2.21 122.74-5.05 122.74-10.38L122.74-10.38 122.74-14.1Q122.74-19.4 125.46-22.23 128.19-25.05 133.41-25.05L133.41-25.05Q138.66-25.05 141.37-22.23 144.09-19.4 144.09-14.1L144.09-14.1 144.09-10.38Q144.09-5.05 141.37-2.21 138.66 0.63 133.41 0.63ZM133.41-2.68L133.41-2.68Q136.66-2.68 138.35-4.6 140.04-6.53 140.04-10.15L140.04-10.15 140.04-14.33Q140.04-17.93 138.35-19.84 136.66-21.75 133.41-21.75L133.41-21.75Q130.19-21.75 128.49-19.84 126.79-17.93 126.79-14.33L126.79-14.33 126.79-10.15Q126.79-6.53 128.49-4.6 130.19-2.68 133.41-2.68ZM157.76 0.53L157.76 0.53Q153.36 0.53 151.06-2.2 148.76-4.93 148.76-10.15L148.76-10.15 148.76-14.18Q148.76-19.43 151.08-22.19 153.41-24.95 157.93-24.95L157.93-24.95Q160.18-24.95 161.83-24.19 163.48-23.43 164.51-22.05 165.53-20.68 165.88-18.8L165.88-18.8 167.21-18.8 166.01-15.08Q165.93-17.23 165.05-18.69 164.16-20.15 162.65-20.9 161.13-21.65 159.18-21.65L159.18-21.65Q156.08-21.65 154.45-19.85 152.81-18.05 152.81-14.55L152.81-14.55 152.81-9.9Q152.81-6.45 154.45-4.65 156.08-2.85 159.18-2.85L159.18-2.85Q161.03-2.85 162.46-3.56 163.88-4.28 164.82-5.54 165.76-6.8 166.11-8.4L166.11-8.4 167.11-5.5 165.91-5.5Q165.56-3.85 164.57-2.48 163.58-1.1 161.92-0.29 160.26 0.53 157.76 0.53ZM169.96 0L165.91 0 166.08-5.9 166.01-7.2 166.01-17.4 166.03-18.25 165.93-25.18 165.93-33.13 169.96-33.13 169.96 0ZM195.06 0L191.03 0 191.21-5.93 191.06-6.55 191.06-14.33 191.08-15.75Q191.08-18.73 189.57-20.15 188.06-21.58 184.78-21.58L184.78-21.58Q182.16-21.58 179.97-20.83 177.78-20.08 176.08-19.07L176.08-19.07 176.46-22.53Q177.41-23.1 178.72-23.66 180.03-24.23 181.72-24.6 183.41-24.98 185.43-24.98L185.43-24.98Q188.06-24.98 189.89-24.34 191.73-23.7 192.87-22.5 194.01-21.3 194.53-19.6 195.06-17.9 195.06-15.8L195.06-15.8 195.06 0ZM182.63 0.53L182.63 0.53Q179.01 0.53 177.07-1.24 175.13-3 175.13-6.28L175.13-6.28 175.13-7Q175.13-10.38 177.22-12.04 179.31-13.7 183.86-14.35L183.86-14.35 191.58-15.45 191.81-12.5 184.36-11.43Q181.56-11.03 180.36-10.06 179.16-9.1 179.16-7.23L179.16-7.23 179.16-6.83Q179.16-4.9 180.34-3.88 181.53-2.85 183.91-2.85L183.91-2.85Q186.01-2.85 187.51-3.58 189.01-4.3 189.93-5.53 190.86-6.75 191.18-8.25L191.18-8.25 191.81-5.5 191.03-5.5Q190.68-3.9 189.72-2.53 188.76-1.15 187.03-0.31 185.31 0.53 182.63 0.53ZM209.9 0.5L209.9 0.5Q207.08 0.5 205.35-0.35 203.63-1.2 202.85-2.93 202.08-4.65 202.08-7.23L202.08-7.23 202.08-22.63 206.08-22.63 206.08-7.7Q206.08-5.3 207.18-4.16 208.28-3.03 210.88-3.03L210.88-3.03Q212.35-3.03 213.72-3.35 215.08-3.68 216.28-4.28L216.28-4.28 215.9-0.8Q214.73-0.2 213.15 0.15 211.58 0.5 209.9 0.5ZM215.65-20.8L198.08-20.8 198.08-24.05 216.03-24.05 215.65-20.8ZM205.98-23.65L202.1-23.65 202.08-30.5 206.15-31.03 205.98-23.65ZM229.85 0.63L229.85 0.63Q224.6 0.63 221.89-2.21 219.18-5.05 219.18-10.38L219.18-10.38 219.18-14.1Q219.18-19.4 221.9-22.23 224.63-25.05 229.85-25.05L229.85-25.05Q235.1-25.05 237.81-22.23 240.53-19.4 240.53-14.1L240.53-14.1 240.53-10.38Q240.53-5.05 237.81-2.21 235.1 0.63 229.85 0.63ZM229.85-2.68L229.85-2.68Q233.1-2.68 234.79-4.6 236.48-6.53 236.48-10.15L236.48-10.15 236.48-14.33Q236.48-17.93 234.79-19.84 233.1-21.75 229.85-21.75L229.85-21.75Q226.63-21.75 224.93-19.84 223.23-17.93 223.23-14.33L223.23-14.33 223.23-10.15Q223.23-6.53 224.93-4.6 226.63-2.68 229.85-2.68ZM253.77 0.55L253.77 0.55Q250.82 0.55 248.62-0.09 246.42-0.73 244.97-1.48L244.97-1.48 244.6-5.23Q246.42-4.28 248.61-3.58 250.8-2.88 253.57-2.88L253.57-2.88Q256.4-2.88 257.82-3.78 259.25-4.67 259.25-6.45L259.25-6.45 259.25-6.73Q259.25-7.88 258.71-8.63 258.17-9.38 256.77-9.95 255.37-10.53 252.8-11.1L252.8-11.1Q249.72-11.78 247.95-12.69 246.17-13.6 245.41-14.95 244.65-16.3 244.65-18.25L244.65-18.25 244.65-18.48Q244.65-21.68 246.87-23.33 249.1-24.98 253.57-24.98L253.57-24.98Q256.45-24.98 258.56-24.33 260.67-23.68 262.02-22.88L262.02-22.88 262.4-19.45Q260.77-20.4 258.67-21.03 256.57-21.65 253.95-21.65L253.95-21.65Q252.05-21.65 250.87-21.26 249.7-20.88 249.17-20.16 248.65-19.45 248.65-18.45L248.65-18.45 248.65-18.25Q248.65-17.15 249.17-16.39 249.7-15.63 251.06-15.06 252.42-14.5 254.85-13.98L254.85-13.98Q257.97-13.35 259.81-12.48 261.65-11.6 262.45-10.26 263.25-8.93 263.25-6.83L263.25-6.83 263.25-6.4Q263.25-2.95 260.85-1.2 258.45 0.55 253.77 0.55Z" opacity="1" transform="matrix(1,0,0,1,0,0)" fill="#ffdc00" class="wordmark-text-0" data-fill-palette-color="primary" id="text-0"></path></svg></g></svg></g></svg></g></svg></g><g transform="matrix(1,0,0,1,424.2859366835087,0)"><svg viewBox="0 0 60.98277634863058 70.69569496072046" height="70.69569496072046" width="60.98277634863058"><g><svg xmlns="http://www.w3.org/2000/svg" xmlns:xlink="http://www.w3.org/1999/xlink" version="1.1" x="0" y="0" viewBox="27.996919236022833 23.232999999999997 47.86016152795436 55.483" style="enable-background:new 0 0 100 100;" xml:space="preserve" height="70.69569496072046" width="60.98277634863058" class="icon-icon-0" data-fill-palette-color="accent" id="icon-0"><g fill="#ffdc00" data-fill-palette-color="accent"><path d="M70.014 45.683c0-5.567-2.531-10.55-6.499-13.871-1.988-4.482-6.3-8.579-11.588-8.579-5.289 0-9.602 4.098-11.59 8.581-3.966 3.321-6.497 8.303-6.497 13.869 0 9.973 8.114 18.087 18.087 18.087S70.014 55.656 70.014 45.683zM51.926 25.673c2.598 0 4.949 1.348 6.752 3.243-2.089-0.844-4.364-1.32-6.752-1.32-2.388 0-4.663 0.476-6.752 1.32C46.977 27.021 49.328 25.673 51.926 25.673zM51.926 60.11c-7.955 0-14.428-6.472-14.428-14.428 0-7.956 6.472-14.428 14.428-14.428 7.956 0 14.428 6.472 14.428 14.428C66.354 53.638 59.882 60.11 51.926 60.11z" fill="#ffdc00" data-fill-palette-color="accent"></path><path d="M51.496 34.068c-0.505 0-0.915 0.41-0.915 0.915s0.41 0.915 0.915 0.915c6.214 0 10.723 5.022 10.723 11.943 0 0.505 0.41 0.915 0.915 0.915s0.915-0.41 0.915-0.915C64.049 39.86 58.77 34.068 51.496 34.068z" fill="#ffdc00" data-fill-palette-color="accent"></path><path d="M34.376 60.791l-5.51 3.4c-0.86 0.531-1.127 1.658-0.596 2.518 0.345 0.56 0.945 0.869 1.559 0.869 0.328 0 0.66-0.088 0.959-0.273l5.51-3.4c0.86-0.531 1.127-1.658 0.596-2.518C36.363 60.527 35.234 60.259 34.376 60.791z" fill="#ffdc00" data-fill-palette-color="accent"></path><path d="M67.555 63.905l5.511 3.4c0.3 0.185 0.631 0.273 0.959 0.273 0.614 0 1.213-0.309 1.559-0.869 0.531-0.86 0.264-1.987-0.596-2.518l-5.511-3.4c-0.861-0.532-1.988-0.263-2.518 0.596C66.428 62.247 66.695 63.374 67.555 63.905z" fill="#ffdc00" data-fill-palette-color="accent"></path><path d="M50.096 69.148v7.738c0 1.011 0.819 1.83 1.83 1.83s1.83-0.819 1.83-1.83v-7.738c0-1.011-0.819-1.83-1.83-1.83S50.096 68.137 50.096 69.148z" fill="#ffdc00" data-fill-palette-color="accent"></path></g></svg></g></svg></g></svg></g></svg></g><defs></defs></svg><rect width="395.52" height="57.62077900334833" fill="none" stroke="none" visibility="hidden"></rect></g></svg></g></svg>